<?xml version="1.0" encoding="UTF-8" standalone="no"?>
<!-- Created with Inkscape (http://www.inkscape.org/) -->

<svg
   xmlns:dc="http://purl.org/dc/elements/1.1/"
   xmlns:cc="http://creativecommons.org/ns#"
   xmlns:rdf="http://www.w3.org/1999/02/22-rdf-syntax-ns#"
   xmlns:svg="http://www.w3.org/2000/svg"
   xmlns="http://www.w3.org/2000/svg"
   xmlns:sodipodi="http://sodipodi.sourceforge.net/DTD/sodipodi-0.dtd"
   xmlns:inkscape="http://www.inkscape.org/namespaces/inkscape"
   width="179.72223mm"
   height="148.02415mm"
   viewBox="0 0 636.81105 524.49495"
   id="svg3336"
   version="1.1"
   inkscape:version="0.91 r13725"
   sodipodi:docname="zugzwangzed.svg">
  <sodipodi:namedview
     id="base"
     pagecolor="#ffffff"
     bordercolor="#666666"
     borderopacity="1.0"
     inkscape:pageopacity="0.0"
     inkscape:pageshadow="2"
     inkscape:zoom="0.7"
     inkscape:cx="110.15942"
     inkscape:cy="342.32829"
     inkscape:document-units="px"
     inkscape:current-layer="layer3"
     showgrid="false"
     inkscape:window-width="1600"
     inkscape:window-height="791"
     inkscape:window-x="0"
     inkscape:window-y="31"
     inkscape:window-maximized="1"
     fit-margin-top="0"
     fit-margin-left="0"
     fit-margin-right="0"
     fit-margin-bottom="0" />
  <defs
     id="defs3338" />
  <metadata
     id="metadata3341">
    <rdf:RDF>
      <cc:Work
         rdf:about="">
        <dc:format>image/svg+xml</dc:format>
        <dc:type
           rdf:resource="http://purl.org/dc/dcmitype/StillImage" />
        <dc:title />
      </cc:Work>
    </rdf:RDF>
  </metadata>
  <g
     inkscape:groupmode="layer"
     id="layer3"
     inkscape:label="Layer 3"
     transform="translate(-49.79507,-385.04381)">
    <path
       style="fill:#000000"
       d="m 49.79507,857.43375 c 0,-28.65765 23.077091,-76.93503 51.28245,-107.28307 43.54617,-46.85402 45.32508,-55.17805 11.7928,-55.17805 -21.719315,0 -39.48965,-8.58263 -39.48965,-19.07252 0,-38.8176 58.44604,-76.2902 118.98952,-76.2902 56.02994,0 140.45203,-62.03097 140.45203,-103.2002 0,-8.80181 -64.05452,-16.00323 -142.34341,-16.00323 -135.034712,0 -141.04715,-2.44814 -117.09814,-47.68135 23.172369,-43.76635 49.38407,-47.68138 319.23537,-47.68138 270.03431,0 293.9901,3.58431 293.9901,43.98646 0,24.19237 -21.22703,63.40419 -47.17119,87.13731 -56.05408,51.27691 -60.60006,83.44239 -11.79279,83.44239 19.45811,0 35.37839,8.58263 35.37839,19.07256 0,38.71744 -58.37774,76.29016 -118.53384,76.29016 -35.56142,0 -85.51288,25.37622 -117.32212,59.60173 l -55.39369,59.6017 157.61744,0 c 151.71349,0 156.51401,1.78711 128.15865,47.68136 -26.85645,43.46921 -55.00235,47.68139 -318.60535,47.68139 -281.605407,0 -289.14657,-1.35989 -289.14657,-52.10506 z M 459.65215,637.76569 c 85.90836,-97.02586 156.19721,-182.85232 156.19721,-190.72565 0,-39.16664 -55.36936,-4.14562 -137.56194,87.00799 -207.04059,229.61307 -244.8668,280.12803 -209.76332,280.12803 19.21189,0 105.21949,-79.3847 191.12805,-176.41037 z"
       id="path3439-6"
       inkscape:connector-curvature="0" />
    <path
       style="fill:#899cba;fill-opacity:0"
       d="M 344.02734 0.40429688 C 259.46357 0.41114723 174.77337 1.395979 140.65234 3.3554688 C 74.206353 7.1713046 47.910329 14.657096 32.984375 34.003906 C 23.325423 46.5237 13.673828 67.558847 13.673828 76.091797 C 13.673828 80.647268 14.081604 81.708984 16.816406 84.263672 C 20.565176 87.765548 30.021815 90.780755 41.636719 92.179688 C 54.155736 93.687512 72.963607 94.278794 141.45898 95.316406 C 200.66106 96.213238 224.14199 97.330704 247.80469 100.37695 C 260.69474 102.03638 275.25806 105.30948 279.5957 107.52148 C 280.84178 108.15693 281.68448 108.66222 282.25586 109.20703 C 282.2562 109.20736 282.25747 109.20671 282.25781 109.20703 C 282.25929 109.20951 282.26025 109.21236 282.26172 109.21484 C 282.33169 109.33317 282.3934 109.45838 282.44727 109.59375 C 282.4486 109.59712 282.44984 109.60014 282.45117 109.60352 C 282.45363 109.60977 282.4546 109.61675 282.45703 109.62305 C 282.50597 109.7497 282.54914 109.88621 282.58594 110.03125 C 282.59237 110.0567 282.59744 110.0833 282.60352 110.10938 C 282.62767 110.21244 282.64695 110.32589 282.66602 110.43945 C 282.71063 110.70646 282.74459 111.00242 282.76562 111.33789 C 282.78742 111.67778 282.7925 112.08232 282.79688 112.50781 C 282.79827 112.65436 282.80479 112.76789 282.80469 112.92578 C 282.80477 113.52157 282.7973 114.18742 282.78516 114.9668 C 282.76585 116.20531 282.62986 117.48651 282.42773 118.78906 C 282.42509 118.80612 282.42455 118.82278 282.42188 118.83984 C 282.42156 118.84186 282.42024 118.84369 282.41992 118.8457 C 281.13523 123.93721 278.71066 130.2519 276.06836 134.90625 C 261.61104 160.37259 224.67614 189.74109 188.8125 204.28711 C 171.92031 211.13846 162.14341 213.43423 144.99414 214.57812 C 123.64027 216.00248 106.677 218.82394 94.064453 223.04688 C 56.021045 235.78459 29.370603 259.40896 24.730469 284.50977 C 22.949173 294.14568 25.546083 298.65863 35.896484 303.9043 C 42.206286 307.10216 49.265495 308.47427 63.845703 309.33789 C 81.89477 310.40697 85.761803 311.90905 86.167969 318.00781 C 86.622309 324.82993 80.135385 334.11326 57.470703 359.06445 C 37.564376 380.97902 26.954448 396.37513 15.802734 419.53125 C 5.2893101 441.36199 0.54101563 458.77235 0.54101562 475.5 C 0.54101563 500.88102 7.4976071 509.63244 32.376953 515.55078 C 46.894447 519.00423 78.985965 521.76434 118.22461 522.93359 C 146.38299 523.77267 460.51582 522.69789 477.33398 521.70508 C 566.42045 516.44611 587.05419 509.10079 608.04297 475.16992 C 616.15666 462.05314 619.81284 454.27451 620.46875 448.73633 C 621.02572 444.03365 620.86677 443.59201 617.47852 440.39648 C 607.36198 430.85535 586.69519 429.65394 432.63477 429.64062 C 389.22453 429.63687 352.31509 429.50787 334.14453 429.32812 C 327.14088 429.18321 322.58439 429.00749 321.92383 428.82031 C 324.73344 424.70339 372.43134 374.17605 387.63086 359.05273 C 389.68432 357.11856 391.69025 355.26804 393.62695 353.54883 C 413.31426 337.21478 434.15504 325.06771 456.22656 317.10547 C 469.74254 312.2296 479.39282 310.42414 497.53711 309.375 C 506.14866 308.87705 517.05879 307.75445 521.78125 306.88086 C 569.70296 298.016 609.19396 267.88527 612.33984 237.78711 C 612.64288 234.88782 612.52418 232.52273 611.89648 230.45312 L 611.95508 229.5332 L 611.30273 228.9082 C 610.30423 226.76385 608.65024 224.90819 606.18945 223.03125 C 599.9514 218.27325 593.27835 216.49074 576.06445 214.98047 C 568.84953 214.34746 564.51104 213.867 561.33789 213.22461 C 561.14302 213.18306 560.94732 213.14175 560.75781 213.09961 C 560.45198 213.03263 560.14328 212.96553 559.85742 212.89453 C 559.7745 212.87477 559.69905 212.85389 559.61719 212.83398 C 557.6896 212.33817 556.16448 211.73718 554.49805 210.92188 C 546.55098 207.03373 544.50057 203.59918 544.54688 194.26367 C 544.58 187.58198 545.01478 185.84956 548.23633 179.58398 C 554.33087 167.7307 563.64341 156.30099 583.5957 136.18164 C 594.06414 125.62554 605.26458 113.46201 608.48438 109.15234 C 620.68327 92.824205 630.17496 74.13968 634.04297 58.84375 C 636.80243 47.931574 636.40331 33.223165 633.18164 27.083984 C 625.48443 12.416286 604.64106 6.6928933 546.64844 3.3222656 C 513.02927 1.3682634 428.59112 0.39744651 344.02734 0.40429688 z M 554.23047 45.837891 C 559.02327 45.849729 562.4517 47.849389 564.45703 51.847656 C 565.2665 53.461585 565.79175 55.160845 566.03906 56.888672 C 566.04493 56.931598 566.05105 56.974533 566.05664 57.017578 C 566.05672 57.018218 566.05656 57.018891 566.05664 57.019531 C 566.09055 57.271054 566.11664 57.522919 566.13867 57.775391 C 566.13958 57.785847 566.14168 57.796182 566.14258 57.806641 C 566.1519 57.912557 566.16036 58.018501 566.16797 58.125 C 566.16825 58.128895 566.16769 58.132823 566.16797 58.136719 C 566.39394 61.604514 565.51463 65.131427 563.54688 68.267578 C 550.17566 89.578079 492.33227 159.64094 423.24414 238.20703 C 338.40806 334.68147 257.91988 412.13082 227.32031 426.73633 C 224.41755 428.12184 221.87549 428.97798 219.51562 429.32227 C 218.84138 429.42063 218.18179 429.47722 217.5332 429.49219 C 215.26315 429.54457 213.12563 429.08836 210.94141 428.13867 C 193.50948 420.55936 228.47209 372.58064 355.5625 229.67578 C 414.32652 163.59948 435.54667 140.31005 457.51758 118.02539 C 459.99184 115.53229 462.44969 113.05483 465.13086 110.37695 C 469.10893 106.40378 472.82816 102.73469 476.39453 99.253906 C 496.95029 79.248693 510.01438 68.285835 524.66992 58.494141 C 534.32857 52.040985 542.38877 48.060984 548.7832 46.544922 C 548.83077 46.534408 548.87833 46.523976 548.92578 46.513672 C 550.63062 46.161666 552.27823 45.933357 553.79102 45.849609 C 553.93671 45.846411 554.0872 45.837537 554.23047 45.837891 z "
       transform="translate(49.79507,385.04375)"
       id="path3338" />
    <path
       style="fill:#899cba;fill-opacity:0"
       d="M 112.30228,522.45673 C 36.516964,519.95138 11.621234,514.21238 4.405216,497.58411 -5.9263718,473.77645 5.3897878,430.97439 32.784657,390.24218 c 4.73102,-7.03435 16.061972,-21.14686 25.179892,-31.36115 17.273602,-19.35062 27.332998,-32.92127 28.83279,-38.89691 0.622677,-2.48094 0.0089,-4.37696 -2.099666,-6.48547 -2.497066,-2.49707 -5.510776,-3.14662 -18.6098,-4.01103 -19.184023,-1.26594 -30.02831,-4.27639 -36.789826,-10.21309 -4.873874,-4.27931 -5.126626,-4.93034 -4.560853,-11.74765 1.340799,-16.15605 14.90228,-34.65629 35.147056,-47.94679 21.841947,-14.33901 47.52199,-22.16286 79.56089,-24.2395 14.10988,-0.91456 23.68903,-2.37257 32.5262,-4.95071 53.51834,-15.61338 111.04523,-65.64153 111.04523,-96.5703 0,-5.07542 -0.38235,-5.55486 -6.07143,-7.6132 C 258.14902,99.405863 227.39449,96.918269 142.30228,95.315734 38.877184,93.36794 22.3972,91.649656 15.341676,82.078197 12.688111,78.478397 12.590321,77.539144 14.226163,71.363911 15.212326,67.641186 18.363137,59.833237 21.227966,54.012916 46.264831,3.1468322 66.938741,0.08182584 375.99825,1.4165208 c 160.88739,0.6948033 185.0354,1.4500773 217.50919,6.8030039 32.24808,5.3157223 42.36627,13.6151483 42.36627,34.7508593 0,16.242937 -9.27766,39.780589 -24.17296,61.327396 -3.94984,5.71365 -16.6953,20.01085 -28.32325,31.77156 -30.74835,31.09942 -43.14473,51.47665 -38.98436,64.08269 3.1774,9.62762 11.35917,13.40605 32.80341,15.14897 17.9038,1.45519 25.55573,4.13193 31.64829,11.07098 4.0219,4.58068 4.35068,5.66727 3.52138,11.63787 -4.01371,28.8973 -41.99595,58.6388 -86.65144,67.85128 -5.80544,1.19767 -19.23393,2.81435 -29.84107,3.59259 -26.66449,1.95637 -44.50194,7.25177 -67.85714,20.14471 -25.37993,14.01068 -36.0754,23.3496 -76.89216,67.13975 l -29.96033,32.14285 128.42624,0.86822 c 79.7453,0.5391 132.8754,1.46094 140.16368,2.43193 36.07378,4.80595 38.2648,11.23627 15.79014,46.34197 -18.91992,29.55316 -42.04474,37.68751 -121.099,42.59763 -30.44256,1.8908 -323.53183,2.94297 -372.14286,1.33595 z M 237.74161,420.61726 c 41.04497,-27.89197 112.2724,-98.28654 194.00473,-191.73623 69.8858,-79.90481 125.7534,-148.278433 133.15533,-162.962309 4.40831,-8.74515 -1.54059,-20.670305 -10.25765,-20.56248 -11.70155,0.144743 -32.35588,12.471 -58.05772,34.648136 -22.62079,19.51862 -54.04875,52.088353 -102.99208,106.733803 -149.83817,167.29495 -192.44821,221.66491 -186.3305,237.75573 1.6692,4.39034 3.60095,5.129 11.90646,4.55287 5.55624,-0.38543 9.10304,-1.9953 18.57143,-8.42952 z"
       id="path4146"
       inkscape:connector-curvature="0"
       transform="translate(49.79507,385.04375)" />
    <path
       style="fill:#899cba;fill-opacity:0"
       d="M 112.30228,522.45673 C 36.516964,519.95138 11.621234,514.21238 4.405216,497.58411 -5.9263718,473.77645 5.3897878,430.97439 32.784657,390.24218 c 4.73102,-7.03435 16.061972,-21.14686 25.179892,-31.36115 17.273602,-19.35062 27.332998,-32.92127 28.83279,-38.89691 0.622677,-2.48094 0.0089,-4.37696 -2.099666,-6.48547 -2.497066,-2.49707 -5.510776,-3.14662 -18.6098,-4.01103 -19.184023,-1.26594 -30.02831,-4.27639 -36.789826,-10.21309 -4.873874,-4.27931 -5.126626,-4.93034 -4.560853,-11.74765 1.340799,-16.15605 14.90228,-34.65629 35.147056,-47.94679 21.841947,-14.33901 47.52199,-22.16286 79.56089,-24.2395 14.10988,-0.91456 23.68903,-2.37257 32.5262,-4.95071 53.51834,-15.61338 111.04523,-65.64153 111.04523,-96.5703 0,-5.07542 -0.38235,-5.55486 -6.07143,-7.6132 C 258.14902,99.405863 227.39449,96.918269 142.30228,95.315734 38.877184,93.36794 22.3972,91.649656 15.341676,82.078197 12.688111,78.478397 12.590321,77.539144 14.226163,71.363911 15.212326,67.641186 18.363137,59.833237 21.227966,54.012916 46.264831,3.1468322 66.938741,0.08182584 375.99825,1.4165208 c 160.88739,0.6948033 185.0354,1.4500773 217.50919,6.8030039 32.24808,5.3157223 42.36627,13.6151483 42.36627,34.7508593 0,16.242937 -9.27766,39.780589 -24.17296,61.327396 -3.94984,5.71365 -16.6953,20.01085 -28.32325,31.77156 -30.74835,31.09942 -43.14473,51.47665 -38.98436,64.08269 3.1774,9.62762 11.35917,13.40605 32.80341,15.14897 17.9038,1.45519 25.55573,4.13193 31.64829,11.07098 4.0219,4.58068 4.35068,5.66727 3.52138,11.63787 -4.01371,28.8973 -41.99595,58.6388 -86.65144,67.85128 -5.80544,1.19767 -19.23393,2.81435 -29.84107,3.59259 -26.66449,1.95637 -44.50194,7.25177 -67.85714,20.14471 -25.37993,14.01068 -36.0754,23.3496 -76.89216,67.13975 l -29.96033,32.14285 128.42624,0.86822 c 79.7453,0.5391 132.8754,1.46094 140.16368,2.43193 36.07378,4.80595 38.2648,11.23627 15.79014,46.34197 -18.91992,29.55316 -42.04474,37.68751 -121.099,42.59763 -30.44256,1.8908 -323.53183,2.94297 -372.14286,1.33595 z M 237.74161,420.61726 c 41.04497,-27.89197 112.2724,-98.28654 194.00473,-191.73623 69.8858,-79.90481 125.7534,-148.278433 133.15533,-162.962309 4.40831,-8.74515 -1.54059,-20.670305 -10.25765,-20.56248 -11.70155,0.144743 -32.35588,12.471 -58.05772,34.648136 -22.62079,19.51862 -54.04875,52.088353 -102.99208,106.733803 -149.83817,167.29495 -192.44821,221.66491 -186.3305,237.75573 1.6692,4.39034 3.60095,5.129 11.90646,4.55287 5.55624,-0.38543 9.10304,-1.9953 18.57143,-8.42952 z"
       id="path4148"
       inkscape:connector-curvature="0"
       transform="translate(49.79507,385.04375)" />
    <path
       style="fill:#337ab7;fill-opacity:1"
       d="M 112.30228,522.45673 C 36.516964,519.95138 11.621234,514.21238 4.405216,497.58411 -5.9263718,473.77645 5.3897878,430.97439 32.784657,390.24218 c 4.73102,-7.03435 16.061972,-21.14686 25.179892,-31.36115 17.273602,-19.35062 27.332998,-32.92127 28.83279,-38.89691 0.622677,-2.48094 0.0089,-4.37696 -2.099666,-6.48547 -2.497066,-2.49707 -5.510776,-3.14662 -18.6098,-4.01103 -19.184023,-1.26594 -30.02831,-4.27639 -36.789826,-10.21309 -4.873874,-4.27931 -5.126626,-4.93034 -4.560853,-11.74765 1.340799,-16.15605 14.90228,-34.65629 35.147056,-47.94679 21.841947,-14.33901 47.52199,-22.16286 79.56089,-24.2395 14.10988,-0.91456 23.68903,-2.37257 32.5262,-4.95071 53.51834,-15.61338 111.04523,-65.64153 111.04523,-96.5703 0,-5.07542 -0.38235,-5.55486 -6.07143,-7.6132 C 258.14902,99.405863 227.39449,96.918269 142.30228,95.315734 38.877184,93.36794 22.3972,91.649656 15.341676,82.078197 12.688111,78.478397 12.590321,77.539144 14.226163,71.363911 15.212326,67.641186 18.363137,59.833237 21.227966,54.012916 46.264831,3.1468322 66.938741,0.08182584 375.99825,1.4165208 c 160.88739,0.6948033 185.0354,1.4500773 217.50919,6.8030039 32.24808,5.3157223 42.36627,13.6151483 42.36627,34.7508593 0,16.242937 -9.27766,39.780589 -24.17296,61.327396 -3.94984,5.71365 -16.6953,20.01085 -28.32325,31.77156 -30.74835,31.09942 -43.14473,51.47665 -38.98436,64.08269 3.1774,9.62762 11.35917,13.40605 32.80341,15.14897 17.9038,1.45519 25.55573,4.13193 31.64829,11.07098 4.0219,4.58068 4.35068,5.66727 3.52138,11.63787 -4.01371,28.8973 -41.99595,58.6388 -86.65144,67.85128 -5.80544,1.19767 -19.23393,2.81435 -29.84107,3.59259 -26.66449,1.95637 -44.50194,7.25177 -67.85714,20.14471 -25.37993,14.01068 -36.0754,23.3496 -76.89216,67.13975 l -29.96033,32.14285 128.42624,0.86822 c 79.7453,0.5391 132.8754,1.46094 140.16368,2.43193 36.07378,4.80595 38.2648,11.23627 15.79014,46.34197 -18.91992,29.55316 -42.04474,37.68751 -121.099,42.59763 -30.44256,1.8908 -323.53183,2.94297 -372.14286,1.33595 z M 237.74161,420.61726 c 41.04497,-27.89197 112.2724,-98.28654 194.00473,-191.73623 69.8858,-79.90481 125.7534,-148.278433 133.15533,-162.962309 4.40831,-8.74515 -1.54059,-20.670305 -10.25765,-20.56248 -11.70155,0.144743 -32.35588,12.471 -58.05772,34.648136 -22.62079,19.51862 -54.04875,52.088353 -102.99208,106.733803 -149.83817,167.29495 -192.44821,221.66491 -186.3305,237.75573 1.6692,4.39034 3.60095,5.129 11.90646,4.55287 5.55624,-0.38543 9.10304,-1.9953 18.57143,-8.42952 z"
       id="path4150"
       inkscape:connector-curvature="0"
       transform="translate(49.79507,385.04375)" />
  </g>
</svg>
